<svg width="140" height="21" viewBox="0 0 140 21" fill="none" xmlns="http://www.w3.org/2000/svg">
<path d="M33.833 5.04688V15H32.5342V5.04688H33.833ZM37.0322 5.04688V6.12695H29.3418V5.04688H37.0322ZM37.2988 11.3838V11.2266C37.2988 10.6934 37.3763 10.1989 37.5312 9.74316C37.6862 9.28288 37.9095 8.88411 38.2012 8.54688C38.4928 8.20508 38.846 7.94076 39.2607 7.75391C39.6755 7.5625 40.1403 7.4668 40.6553 7.4668C41.1748 7.4668 41.6419 7.5625 42.0566 7.75391C42.4759 7.94076 42.8314 8.20508 43.123 8.54688C43.4193 8.88411 43.6449 9.28288 43.7998 9.74316C43.9548 10.1989 44.0322 10.6934 44.0322 11.2266V11.3838C44.0322 11.917 43.9548 12.4115 43.7998 12.8672C43.6449 13.3229 43.4193 13.7217 43.123 14.0635C42.8314 14.4007 42.4782 14.665 42.0635 14.8564C41.6533 15.0433 41.1885 15.1367 40.6689 15.1367C40.1494 15.1367 39.6823 15.0433 39.2676 14.8564C38.8529 14.665 38.4974 14.4007 38.2012 14.0635C37.9095 13.7217 37.6862 13.3229 37.5312 12.8672C37.3763 12.4115 37.2988 11.917 37.2988 11.3838ZM38.5635 11.2266V11.3838C38.5635 11.7529 38.6068 12.1016 38.6934 12.4297C38.7799 12.7533 38.9098 13.0404 39.083 13.291C39.2607 13.5417 39.4818 13.7399 39.7461 13.8857C40.0104 14.027 40.318 14.0977 40.6689 14.0977C41.0153 14.0977 41.3184 14.027 41.5781 13.8857C41.8424 13.7399 42.0612 13.5417 42.2344 13.291C42.4076 13.0404 42.5374 12.7533 42.624 12.4297C42.7152 12.1016 42.7607 11.7529 42.7607 11.3838V11.2266C42.7607 10.862 42.7152 10.5179 42.624 10.1943C42.5374 9.86621 42.4053 9.57682 42.2275 9.32617C42.0544 9.07096 41.8356 8.87044 41.5713 8.72461C41.3115 8.57878 41.0062 8.50586 40.6553 8.50586C40.3089 8.50586 40.0036 8.57878 39.7393 8.72461C39.4795 8.87044 39.2607 9.07096 39.083 9.32617C38.9098 9.57682 38.7799 9.86621 38.6934 10.1943C38.6068 10.5179 38.5635 10.862 38.5635 11.2266ZM50.9639 13.6875L52.8643 7.60352H53.6982L53.5342 8.81348L51.5996 15H50.7861L50.9639 13.6875ZM49.6855 7.60352L51.3057 13.7559L51.4219 15H50.5674L48.4209 7.60352H49.6855ZM55.5166 13.708L57.0615 7.60352H58.3193L56.1729 15H55.3252L55.5166 13.708ZM53.8828 7.60352L55.7422 13.585L55.9541 15H55.1475L53.1582 8.7998L52.9941 7.60352H53.8828ZM60.8828 8.76562V15H59.6182V7.60352H60.8486L60.8828 8.76562ZM63.1934 7.5625L63.1865 8.73828C63.0817 8.71549 62.9814 8.70182 62.8857 8.69727C62.7946 8.68815 62.6898 8.68359 62.5713 8.68359C62.2796 8.68359 62.0221 8.72917 61.7988 8.82031C61.5755 8.91146 61.3864 9.03906 61.2314 9.20312C61.0765 9.36719 60.9535 9.56315 60.8623 9.79102C60.7757 10.0143 60.7188 10.2604 60.6914 10.5293L60.3359 10.7344C60.3359 10.2878 60.3792 9.86849 60.4658 9.47656C60.557 9.08464 60.696 8.73828 60.8828 8.4375C61.0697 8.13216 61.3066 7.89518 61.5938 7.72656C61.8854 7.55339 62.2318 7.4668 62.6328 7.4668C62.724 7.4668 62.8288 7.47819 62.9473 7.50098C63.0658 7.51921 63.1478 7.53971 63.1934 7.5625ZM65.7363 7.60352V15H64.4648V7.60352H65.7363ZM64.3691 5.6416C64.3691 5.43652 64.4307 5.26335 64.5537 5.12207C64.6813 4.98079 64.8682 4.91016 65.1143 4.91016C65.3558 4.91016 65.5404 4.98079 65.668 5.12207C65.8001 5.26335 65.8662 5.43652 65.8662 5.6416C65.8662 5.83757 65.8001 6.00618 65.668 6.14746C65.5404 6.28418 65.3558 6.35254 65.1143 6.35254C64.8682 6.35254 64.6813 6.28418 64.5537 6.14746C64.4307 6.00618 64.3691 5.83757 64.3691 5.6416ZM70.8633 7.60352V8.57422H66.8643V7.60352H70.8633ZM68.2178 5.80566H69.4824V13.168C69.4824 13.4186 69.5212 13.6077 69.5986 13.7354C69.6761 13.863 69.7764 13.9473 69.8994 13.9883C70.0225 14.0293 70.1546 14.0498 70.2959 14.0498C70.4007 14.0498 70.5101 14.0407 70.624 14.0225C70.7425 13.9997 70.8314 13.9814 70.8906 13.9678L70.8975 15C70.7972 15.0319 70.665 15.0615 70.501 15.0889C70.3415 15.1208 70.1478 15.1367 69.9199 15.1367C69.61 15.1367 69.3252 15.0752 69.0654 14.9521C68.8057 14.8291 68.5983 14.624 68.4434 14.3369C68.293 14.0452 68.2178 13.6533 68.2178 13.1611V5.80566ZM75.416 15.1367C74.901 15.1367 74.4339 15.0501 74.0146 14.877C73.5999 14.6992 73.2422 14.4508 72.9414 14.1318C72.6452 13.8128 72.4173 13.4346 72.2578 12.9971C72.0983 12.5596 72.0186 12.0811 72.0186 11.5615V11.2744C72.0186 10.6729 72.1074 10.1374 72.2852 9.66797C72.4629 9.19401 72.7044 8.79297 73.0098 8.46484C73.3151 8.13672 73.6615 7.88835 74.0488 7.71973C74.4362 7.55111 74.8372 7.4668 75.252 7.4668C75.7806 7.4668 76.2363 7.55794 76.6191 7.74023C77.0065 7.92253 77.3232 8.17773 77.5693 8.50586C77.8154 8.82943 77.9977 9.21224 78.1162 9.6543C78.2347 10.0918 78.2939 10.5703 78.2939 11.0898V11.6572H72.7705V10.625H77.0293V10.5293C77.0111 10.2012 76.9427 9.88216 76.8242 9.57227C76.7103 9.26237 76.528 9.00716 76.2773 8.80664C76.0267 8.60612 75.6849 8.50586 75.252 8.50586C74.9648 8.50586 74.7005 8.56738 74.459 8.69043C74.2174 8.80892 74.0101 8.98665 73.8369 9.22363C73.6637 9.46061 73.5293 9.75 73.4336 10.0918C73.3379 10.4336 73.29 10.8278 73.29 11.2744V11.5615C73.29 11.9124 73.3379 12.2428 73.4336 12.5527C73.5339 12.8581 73.6774 13.127 73.8643 13.3594C74.0557 13.5918 74.2858 13.7741 74.5547 13.9062C74.8281 14.0384 75.138 14.1045 75.4844 14.1045C75.931 14.1045 76.3092 14.0133 76.6191 13.8311C76.929 13.6488 77.2002 13.4049 77.4326 13.0996L78.1982 13.708C78.0387 13.9495 77.8359 14.1797 77.5898 14.3984C77.3438 14.6172 77.0407 14.7949 76.6807 14.9316C76.3252 15.0684 75.9036 15.1367 75.416 15.1367ZM87.6045 13.7354V9.92773C87.6045 9.63607 87.5452 9.38314 87.4268 9.16895C87.3128 8.9502 87.1396 8.78158 86.9072 8.66309C86.6748 8.5446 86.3877 8.48535 86.0459 8.48535C85.7269 8.48535 85.4466 8.54004 85.2051 8.64941C84.9681 8.75879 84.7812 8.90234 84.6445 9.08008C84.5124 9.25781 84.4463 9.44922 84.4463 9.6543H83.1816C83.1816 9.38997 83.25 9.12793 83.3867 8.86816C83.5234 8.6084 83.7194 8.3737 83.9746 8.16406C84.2344 7.94987 84.5443 7.78125 84.9043 7.6582C85.2689 7.5306 85.6745 7.4668 86.1211 7.4668C86.6589 7.4668 87.1328 7.55794 87.543 7.74023C87.9577 7.92253 88.2812 8.19824 88.5137 8.56738C88.7507 8.93197 88.8691 9.38997 88.8691 9.94141V13.3867C88.8691 13.6328 88.8896 13.8949 88.9307 14.1729C88.9762 14.4508 89.0423 14.6901 89.1289 14.8906V15H87.8096C87.7458 14.8542 87.6956 14.6605 87.6592 14.4189C87.6227 14.1729 87.6045 13.945 87.6045 13.7354ZM87.8232 10.5156L87.8369 11.4043H86.5586C86.1986 11.4043 85.8773 11.4339 85.5947 11.4932C85.3122 11.5479 85.0752 11.6322 84.8838 11.7461C84.6924 11.86 84.5465 12.0036 84.4463 12.1768C84.346 12.3454 84.2959 12.5436 84.2959 12.7715C84.2959 13.0039 84.3483 13.2158 84.4531 13.4072C84.5579 13.5986 84.7152 13.7513 84.9248 13.8652C85.139 13.9746 85.401 14.0293 85.7109 14.0293C86.0983 14.0293 86.4401 13.9473 86.7363 13.7832C87.0326 13.6191 87.2673 13.4186 87.4404 13.1816C87.6182 12.9447 87.7139 12.7145 87.7275 12.4912L88.2676 13.0996C88.2357 13.291 88.1491 13.5029 88.0078 13.7354C87.8665 13.9678 87.6774 14.1911 87.4404 14.4053C87.208 14.6149 86.93 14.7904 86.6064 14.9316C86.2874 15.0684 85.9274 15.1367 85.5264 15.1367C85.0251 15.1367 84.5853 15.0387 84.207 14.8428C83.8333 14.6468 83.5417 14.3848 83.332 14.0566C83.127 13.724 83.0244 13.3525 83.0244 12.9424C83.0244 12.5459 83.1019 12.1973 83.2568 11.8965C83.4118 11.5911 83.6351 11.3382 83.9268 11.1377C84.2184 10.9326 84.5693 10.7777 84.9795 10.6729C85.3896 10.568 85.8477 10.5156 86.3535 10.5156H87.8232ZM92.123 9.18262V15H90.8584V7.60352H92.0547L92.123 9.18262ZM91.8223 11.0215L91.2959 11.001C91.3005 10.4951 91.3757 10.028 91.5215 9.59961C91.6673 9.16667 91.8724 8.79069 92.1367 8.47168C92.401 8.15267 92.7155 7.90658 93.0801 7.7334C93.4492 7.55566 93.8571 7.4668 94.3037 7.4668C94.6683 7.4668 94.9964 7.51693 95.2881 7.61719C95.5798 7.71289 95.8281 7.86784 96.0332 8.08203C96.2428 8.29622 96.4023 8.57422 96.5117 8.91602C96.6211 9.25326 96.6758 9.66569 96.6758 10.1533V15H95.4043V10.1396C95.4043 9.75228 95.3473 9.44238 95.2334 9.20996C95.1195 8.97298 94.9531 8.80208 94.7344 8.69727C94.5156 8.58789 94.2467 8.5332 93.9277 8.5332C93.6133 8.5332 93.3262 8.59928 93.0664 8.73145C92.8112 8.86361 92.5902 9.0459 92.4033 9.27832C92.221 9.51074 92.0775 9.77734 91.9727 10.0781C91.8724 10.3743 91.8223 10.6888 91.8223 11.0215ZM106.431 13.7354V9.92773C106.431 9.63607 106.371 9.38314 106.253 9.16895C106.139 8.9502 105.966 8.78158 105.733 8.66309C105.501 8.5446 105.214 8.48535 104.872 8.48535C104.553 8.48535 104.273 8.54004 104.031 8.64941C103.794 8.75879 103.607 8.90234 103.471 9.08008C103.339 9.25781 103.272 9.44922 103.272 9.6543H102.008C102.008 9.38997 102.076 9.12793 102.213 8.86816C102.35 8.6084 102.546 8.3737 102.801 8.16406C103.061 7.94987 103.37 7.78125 103.73 7.6582C104.095 7.5306 104.501 7.4668 104.947 7.4668C105.485 7.4668 105.959 7.55794 106.369 7.74023C106.784 7.92253 107.107 8.19824 107.34 8.56738C107.577 8.93197 107.695 9.38997 107.695 9.94141V13.3867C107.695 13.6328 107.716 13.8949 107.757 14.1729C107.802 14.4508 107.868 14.6901 107.955 14.8906V15H106.636C106.572 14.8542 106.522 14.6605 106.485 14.4189C106.449 14.1729 106.431 13.945 106.431 13.7354ZM106.649 10.5156L106.663 11.4043H105.385C105.025 11.4043 104.703 11.4339 104.421 11.4932C104.138 11.5479 103.901 11.6322 103.71 11.7461C103.519 11.86 103.373 12.0036 103.272 12.1768C103.172 12.3454 103.122 12.5436 103.122 12.7715C103.122 13.0039 103.174 13.2158 103.279 13.4072C103.384 13.5986 103.541 13.7513 103.751 13.8652C103.965 13.9746 104.227 14.0293 104.537 14.0293C104.924 14.0293 105.266 13.9473 105.562 13.7832C105.859 13.6191 106.093 13.4186 106.267 13.1816C106.444 12.9447 106.54 12.7145 106.554 12.4912L107.094 13.0996C107.062 13.291 106.975 13.5029 106.834 13.7354C106.693 13.9678 106.504 14.1911 106.267 14.4053C106.034 14.6149 105.756 14.7904 105.433 14.9316C105.114 15.0684 104.754 15.1367 104.353 15.1367C103.851 15.1367 103.411 15.0387 103.033 14.8428C102.66 14.6468 102.368 14.3848 102.158 14.0566C101.953 13.724 101.851 13.3525 101.851 12.9424C101.851 12.5459 101.928 12.1973 102.083 11.8965C102.238 11.5911 102.461 11.3382 102.753 11.1377C103.045 10.9326 103.396 10.7777 103.806 10.6729C104.216 10.568 104.674 10.5156 105.18 10.5156H106.649ZM110.949 8.76562V15H109.685V7.60352H110.915L110.949 8.76562ZM113.26 7.5625L113.253 8.73828C113.148 8.71549 113.048 8.70182 112.952 8.69727C112.861 8.68815 112.756 8.68359 112.638 8.68359C112.346 8.68359 112.089 8.72917 111.865 8.82031C111.642 8.91146 111.453 9.03906 111.298 9.20312C111.143 9.36719 111.02 9.56315 110.929 9.79102C110.842 10.0143 110.785 10.2604 110.758 10.5293L110.402 10.7344C110.402 10.2878 110.446 9.86849 110.532 9.47656C110.623 9.08464 110.762 8.73828 110.949 8.4375C111.136 8.13216 111.373 7.89518 111.66 7.72656C111.952 7.55339 112.298 7.4668 112.699 7.4668C112.79 7.4668 112.895 7.47819 113.014 7.50098C113.132 7.51921 113.214 7.53971 113.26 7.5625ZM117.867 7.60352V8.57422H113.868V7.60352H117.867ZM115.222 5.80566H116.486V13.168C116.486 13.4186 116.525 13.6077 116.603 13.7354C116.68 13.863 116.78 13.9473 116.903 13.9883C117.026 14.0293 117.159 14.0498 117.3 14.0498C117.405 14.0498 117.514 14.0407 117.628 14.0225C117.746 13.9997 117.835 13.9814 117.895 13.9678L117.901 15C117.801 15.0319 117.669 15.0615 117.505 15.0889C117.345 15.1208 117.152 15.1367 116.924 15.1367C116.614 15.1367 116.329 15.0752 116.069 14.9521C115.81 14.8291 115.602 14.624 115.447 14.3369C115.297 14.0452 115.222 13.6533 115.222 13.1611V5.80566ZM120.725 7.60352V15H119.453V7.60352H120.725ZM119.357 5.6416C119.357 5.43652 119.419 5.26335 119.542 5.12207C119.67 4.98079 119.856 4.91016 120.103 4.91016C120.344 4.91016 120.529 4.98079 120.656 5.12207C120.788 5.26335 120.854 5.43652 120.854 5.6416C120.854 5.83757 120.788 6.00618 120.656 6.14746C120.529 6.28418 120.344 6.35254 120.103 6.35254C119.856 6.35254 119.67 6.28418 119.542 6.14746C119.419 6.00618 119.357 5.83757 119.357 5.6416ZM125.715 14.0977C126.016 14.0977 126.294 14.0361 126.549 13.9131C126.804 13.79 127.014 13.6214 127.178 13.4072C127.342 13.1885 127.435 12.9401 127.458 12.6621H128.661C128.638 13.0996 128.49 13.5075 128.217 13.8857C127.948 14.2594 127.595 14.5625 127.157 14.7949C126.72 15.0228 126.239 15.1367 125.715 15.1367C125.159 15.1367 124.674 15.0387 124.259 14.8428C123.849 14.6468 123.507 14.3779 123.233 14.0361C122.965 13.6943 122.762 13.3024 122.625 12.8604C122.493 12.4137 122.427 11.9421 122.427 11.4453V11.1582C122.427 10.6615 122.493 10.1921 122.625 9.75C122.762 9.30339 122.965 8.90918 123.233 8.56738C123.507 8.22559 123.849 7.95671 124.259 7.76074C124.674 7.56478 125.159 7.4668 125.715 7.4668C126.294 7.4668 126.799 7.58529 127.232 7.82227C127.665 8.05469 128.005 8.3737 128.251 8.7793C128.502 9.18034 128.638 9.63607 128.661 10.1465H127.458C127.435 9.84115 127.349 9.56543 127.198 9.31934C127.052 9.07324 126.852 8.87728 126.597 8.73145C126.346 8.58105 126.052 8.50586 125.715 8.50586C125.327 8.50586 125.002 8.58333 124.737 8.73828C124.478 8.88867 124.27 9.09375 124.115 9.35352C123.965 9.60872 123.855 9.89355 123.787 10.208C123.723 10.5179 123.691 10.8346 123.691 11.1582V11.4453C123.691 11.7689 123.723 12.0879 123.787 12.4023C123.851 12.7168 123.958 13.0016 124.108 13.2568C124.263 13.512 124.471 13.7171 124.73 13.8721C124.995 14.0225 125.323 14.0977 125.715 14.0977ZM131.457 4.5V15H130.186V4.5H131.457ZM136.557 15.1367C136.042 15.1367 135.575 15.0501 135.155 14.877C134.741 14.6992 134.383 14.4508 134.082 14.1318C133.786 13.8128 133.558 13.4346 133.398 12.9971C133.239 12.5596 133.159 12.0811 133.159 11.5615V11.2744C133.159 10.6729 133.248 10.1374 133.426 9.66797C133.604 9.19401 133.845 8.79297 134.15 8.46484C134.456 8.13672 134.802 7.88835 135.189 7.71973C135.577 7.55111 135.978 7.4668 136.393 7.4668C136.921 7.4668 137.377 7.55794 137.76 7.74023C138.147 7.92253 138.464 8.17773 138.71 8.50586C138.956 8.82943 139.138 9.21224 139.257 9.6543C139.375 10.0918 139.435 10.5703 139.435 11.0898V11.6572H133.911V10.625H138.17V10.5293C138.152 10.2012 138.083 9.88216 137.965 9.57227C137.851 9.26237 137.669 9.00716 137.418 8.80664C137.167 8.60612 136.826 8.50586 136.393 8.50586C136.105 8.50586 135.841 8.56738 135.6 8.69043C135.358 8.80892 135.151 8.98665 134.978 9.22363C134.804 9.46061 134.67 9.75 134.574 10.0918C134.479 10.4336 134.431 10.8278 134.431 11.2744V11.5615C134.431 11.9124 134.479 12.2428 134.574 12.5527C134.674 12.8581 134.818 13.127 135.005 13.3594C135.196 13.5918 135.426 13.7741 135.695 13.9062C135.969 14.0384 136.279 14.1045 136.625 14.1045C137.072 14.1045 137.45 14.0133 137.76 13.8311C138.07 13.6488 138.341 13.4049 138.573 13.0996L139.339 13.708C139.179 13.9495 138.977 14.1797 138.73 14.3984C138.484 14.6172 138.181 14.7949 137.821 14.9316C137.466 15.0684 137.044 15.1367 136.557 15.1367Z" fill="#666666"/>
<rect y="2" width="18" height="2" fill="#E16745"/>
<rect y="6" width="10" height="10" fill="#E16745"/>
<rect x="12" y="6" width="6" height="2" fill="#E16745"/>
<rect x="12" y="10" width="6" height="2" fill="#E16745"/>
<rect x="12" y="14" width="6" height="2" fill="#E16745"/>
<rect y="18" width="18" height="2" fill="#E16745"/>
</svg>
