<svg width="33" height="43" viewBox="0 0 33 43" fill="none" xmlns="http://www.w3.org/2000/svg">
<path d="M4.99053 13.4302L3.01367 13.4304V11.8317L14.0101 4.22021L25.0099 11.8317V13.4302H23.0296V23.4009H16.0286V17.425H12.1468V23.4009H4.99053V13.4302Z" fill="#666666"/>
<path fill-rule="evenodd" clip-rule="evenodd" d="M24.832 4.43018C23.0177 4.43018 21.5469 5.90099 21.5469 7.71533C21.5469 9.52967 23.0177 11.0005 24.832 11.0005C26.6464 11.0005 28.1172 9.52967 28.1172 7.71533C28.1172 5.90099 26.6464 4.43018 24.832 4.43018ZM17.5469 7.71533C17.5469 3.69185 20.8086 0.430176 24.832 0.430176C28.8555 0.430176 32.1172 3.69185 32.1172 7.71533C32.1172 11.7388 28.8555 15.0005 24.832 15.0005C20.8086 15.0005 17.5469 11.7388 17.5469 7.71533Z" fill="#CC1016"/>
<path d="M6.02344 35.1191V35.8857H2.17578V35.1191H6.02344ZM2.32227 32.0625V39.1719H1.37988V32.0625H2.32227ZM6.84375 32.0625V39.1719H5.90625V32.0625H6.84375ZM8.14258 36.5889V36.4766C8.14258 36.0957 8.19792 35.7425 8.30859 35.417C8.41927 35.0882 8.57878 34.8034 8.78711 34.5625C8.99544 34.3184 9.24772 34.1296 9.54395 33.9961C9.84017 33.8594 10.1722 33.791 10.54 33.791C10.9111 33.791 11.2448 33.8594 11.541 33.9961C11.8405 34.1296 12.0944 34.3184 12.3027 34.5625C12.5143 34.8034 12.6755 35.0882 12.7861 35.417C12.8968 35.7425 12.9521 36.0957 12.9521 36.4766V36.5889C12.9521 36.9697 12.8968 37.3229 12.7861 37.6484C12.6755 37.974 12.5143 38.2588 12.3027 38.5029C12.0944 38.7438 11.8421 38.9326 11.5459 39.0693C11.2529 39.2028 10.9209 39.2695 10.5498 39.2695C10.1787 39.2695 9.84505 39.2028 9.54883 39.0693C9.2526 38.9326 8.9987 38.7438 8.78711 38.5029C8.57878 38.2588 8.41927 37.974 8.30859 37.6484C8.19792 37.3229 8.14258 36.9697 8.14258 36.5889ZM9.0459 36.4766V36.5889C9.0459 36.8525 9.07682 37.1016 9.13867 37.3359C9.20052 37.5671 9.29329 37.7721 9.41699 37.9512C9.54395 38.1302 9.70182 38.2718 9.89062 38.376C10.0794 38.4769 10.2992 38.5273 10.5498 38.5273C10.7972 38.5273 11.0137 38.4769 11.1992 38.376C11.388 38.2718 11.5443 38.1302 11.668 37.9512C11.7917 37.7721 11.8844 37.5671 11.9463 37.3359C12.0114 37.1016 12.0439 36.8525 12.0439 36.5889V36.4766C12.0439 36.2161 12.0114 35.9704 11.9463 35.7393C11.8844 35.5049 11.79 35.2982 11.6631 35.1191C11.5394 34.9368 11.3831 34.7936 11.1943 34.6895C11.0088 34.5853 10.7907 34.5332 10.54 34.5332C10.2926 34.5332 10.0745 34.5853 9.88574 34.6895C9.7002 34.7936 9.54395 34.9368 9.41699 35.1191C9.29329 35.2982 9.20052 35.5049 9.13867 35.7393C9.07682 35.9704 9.0459 36.2161 9.0459 36.4766ZM14.9834 34.9385V39.1719H14.0752V33.8887H14.9346L14.9834 34.9385ZM14.7979 36.3301L14.3779 36.3154C14.3812 35.9541 14.4284 35.6204 14.5195 35.3145C14.6107 35.0052 14.7458 34.7367 14.9248 34.5088C15.1038 34.2809 15.3268 34.1051 15.5938 33.9814C15.8607 33.8545 16.1699 33.791 16.5215 33.791C16.7689 33.791 16.9967 33.8268 17.2051 33.8984C17.4134 33.9668 17.5941 34.0758 17.7471 34.2256C17.9001 34.3753 18.0189 34.5674 18.1035 34.8018C18.1882 35.0361 18.2305 35.3193 18.2305 35.6514V39.1719H17.3271V35.6953C17.3271 35.4186 17.2799 35.1973 17.1855 35.0312C17.0944 34.8652 16.9642 34.7448 16.7949 34.6699C16.6257 34.5918 16.4271 34.5527 16.1992 34.5527C15.9323 34.5527 15.7093 34.5999 15.5303 34.6943C15.3512 34.7887 15.208 34.9189 15.1006 35.085C14.9932 35.251 14.915 35.4414 14.8662 35.6562C14.8206 35.8678 14.7979 36.0924 14.7979 36.3301ZM18.2207 35.832L17.6152 36.0176C17.6185 35.7279 17.6657 35.4495 17.7568 35.1826C17.8512 34.9157 17.9863 34.6781 18.1621 34.4697C18.3411 34.2614 18.5609 34.097 18.8213 33.9766C19.0817 33.8529 19.3796 33.791 19.7148 33.791C19.998 33.791 20.2487 33.8285 20.4668 33.9033C20.6882 33.9782 20.8737 34.0938 21.0234 34.25C21.1764 34.403 21.292 34.5999 21.3701 34.8408C21.4482 35.0817 21.4873 35.3682 21.4873 35.7002V39.1719H20.5791V35.6904C20.5791 35.3942 20.5319 35.1647 20.4375 35.002C20.3464 34.8359 20.2161 34.7204 20.0469 34.6553C19.8809 34.5869 19.6823 34.5527 19.4512 34.5527C19.2526 34.5527 19.0768 34.5869 18.9238 34.6553C18.7708 34.7236 18.6423 34.818 18.5381 34.9385C18.4339 35.0557 18.3542 35.1908 18.2988 35.3438C18.2467 35.4967 18.2207 35.6595 18.2207 35.832ZM25.0469 39.2695C24.679 39.2695 24.3454 39.2077 24.0459 39.084C23.7497 38.957 23.4941 38.7796 23.2793 38.5518C23.0677 38.3239 22.9049 38.0537 22.791 37.7412C22.6771 37.4287 22.6201 37.0869 22.6201 36.7158V36.5107C22.6201 36.0811 22.6836 35.6986 22.8105 35.3633C22.9375 35.0247 23.11 34.7383 23.3281 34.5039C23.5462 34.2695 23.7936 34.0921 24.0703 33.9717C24.347 33.8512 24.6335 33.791 24.9297 33.791C25.3073 33.791 25.6328 33.8561 25.9062 33.9863C26.1829 34.1165 26.4092 34.2988 26.585 34.5332C26.7607 34.7643 26.891 35.0378 26.9756 35.3535C27.0602 35.666 27.1025 36.0078 27.1025 36.3789V36.7842H23.1572V36.0469H26.1992V35.9785C26.1862 35.7441 26.1374 35.5163 26.0527 35.2949C25.9714 35.0736 25.8411 34.8913 25.6621 34.748C25.4831 34.6048 25.2389 34.5332 24.9297 34.5332C24.7246 34.5332 24.5358 34.5771 24.3633 34.665C24.1908 34.7497 24.0426 34.8766 23.9189 35.0459C23.7952 35.2152 23.6992 35.4219 23.6309 35.666C23.5625 35.9102 23.5283 36.1917 23.5283 36.5107V36.7158C23.5283 36.9665 23.5625 37.2025 23.6309 37.4238C23.7025 37.6419 23.805 37.834 23.9385 38C24.0752 38.166 24.2396 38.2962 24.4316 38.3906C24.627 38.485 24.8483 38.5322 25.0957 38.5322C25.4147 38.5322 25.6849 38.4671 25.9062 38.3369C26.1276 38.2067 26.3213 38.0326 26.4873 37.8145L27.0342 38.249C26.9202 38.4215 26.7754 38.5859 26.5996 38.7422C26.4238 38.8984 26.2074 39.0254 25.9502 39.123C25.6963 39.2207 25.3952 39.2695 25.0469 39.2695Z" fill="#666666"/>
</svg>
