<svg width="24" height="39" viewBox="0 0 24 39" fill="none" xmlns="http://www.w3.org/2000/svg">
<path fill-rule="evenodd" clip-rule="evenodd" d="M6.73021 4.45117C6.73135 4.37525 6.73466 4.2928 6.74108 4.20488C6.77228 3.77762 6.8793 3.19217 7.19329 2.59784C7.86708 1.3225 9.28452 0.368652 11.8287 0.368652C14.3729 0.368652 15.7903 1.3225 16.4641 2.59784C16.7781 3.19217 16.8851 3.77762 16.9163 4.20488C16.9227 4.2928 16.926 4.37525 16.9272 4.45117H21.761V8.44092C21.761 10.0978 20.4178 11.4409 18.761 11.4409H4.74634C3.08948 11.4409 1.74634 10.0978 1.74634 8.44092V4.45117H6.73021ZM14.9266 4.45117C14.9258 4.42706 14.9245 4.40128 14.9225 4.37404C14.9075 4.16953 14.8572 3.91263 14.7261 3.66461C14.5099 3.25525 13.8867 2.5244 11.8287 2.5244C9.77069 2.5244 9.14752 3.25525 8.93125 3.66461C8.80022 3.91263 8.74985 4.16953 8.73491 4.37404C8.73292 4.40128 8.73161 4.42706 8.7308 4.45117H14.9266Z" fill="#666666"/>
<path d="M1.74634 11.4409C1.74634 11.4409 2.3541 12.483 11.7537 12.483C21.1532 12.483 21.761 11.4409 21.761 11.4409V15.4307C21.761 17.0875 20.4178 18.4307 18.761 18.4307H4.74634C3.08948 18.4307 1.74634 17.0875 1.74634 15.4307V11.4409Z" fill="#666666"/>
<path d="M4.56177 33.0967V28.0625H5.49927V33.0967C5.49927 33.5654 5.40324 33.9609 5.21118 34.2832C5.01912 34.6055 4.75382 34.8512 4.41528 35.0205C4.08 35.1865 3.69425 35.2695 3.25806 35.2695C2.82186 35.2695 2.43449 35.1947 2.09595 35.0449C1.75741 34.8952 1.49211 34.6673 1.30005 34.3613C1.10799 34.0553 1.01196 33.6696 1.01196 33.2041H1.95435C1.95435 33.5036 2.00968 33.7493 2.12036 33.9414C2.23104 34.1335 2.38403 34.2751 2.57935 34.3662C2.77791 34.4574 3.00415 34.5029 3.25806 34.5029C3.50545 34.5029 3.72681 34.4508 3.92212 34.3467C4.12069 34.2393 4.27694 34.0814 4.39087 33.873C4.5048 33.6615 4.56177 33.4027 4.56177 33.0967ZM6.71997 32.5889V32.4766C6.71997 32.0957 6.77531 31.7425 6.88599 31.417C6.99666 31.0882 7.15617 30.8034 7.3645 30.5625C7.57284 30.3184 7.82511 30.1296 8.12134 29.9961C8.41756 29.8594 8.74959 29.791 9.11743 29.791C9.48853 29.791 9.82218 29.8594 10.1184 29.9961C10.4179 30.1296 10.6718 30.3184 10.8801 30.5625C11.0917 30.8034 11.2528 31.0882 11.3635 31.417C11.4742 31.7425 11.5295 32.0957 11.5295 32.4766V32.5889C11.5295 32.9697 11.4742 33.3229 11.3635 33.6484C11.2528 33.974 11.0917 34.2588 10.8801 34.5029C10.6718 34.7438 10.4195 34.9326 10.1233 35.0693C9.83032 35.2028 9.49829 35.2695 9.1272 35.2695C8.7561 35.2695 8.42244 35.2028 8.12622 35.0693C7.83 34.9326 7.57609 34.7438 7.3645 34.5029C7.15617 34.2588 6.99666 33.974 6.88599 33.6484C6.77531 33.3229 6.71997 32.9697 6.71997 32.5889ZM7.62329 32.4766V32.5889C7.62329 32.8525 7.65422 33.1016 7.71606 33.3359C7.77791 33.5671 7.87069 33.7721 7.99438 33.9512C8.12134 34.1302 8.27922 34.2718 8.46802 34.376C8.65682 34.4769 8.87655 34.5273 9.1272 34.5273C9.37459 34.5273 9.59106 34.4769 9.77661 34.376C9.96541 34.2718 10.1217 34.1302 10.2454 33.9512C10.3691 33.7721 10.4618 33.5671 10.5237 33.3359C10.5888 33.1016 10.6213 32.8525 10.6213 32.5889V32.4766C10.6213 32.2161 10.5888 31.9704 10.5237 31.7393C10.4618 31.5049 10.3674 31.2982 10.2405 31.1191C10.1168 30.9368 9.96053 30.7936 9.77173 30.6895C9.58618 30.5853 9.36808 30.5332 9.11743 30.5332C8.87004 30.5332 8.65194 30.5853 8.46313 30.6895C8.27759 30.7936 8.12134 30.9368 7.99438 31.1191C7.87069 31.2982 7.77791 31.5049 7.71606 31.7393C7.65422 31.9704 7.62329 32.2161 7.62329 32.4766ZM12.6575 27.6719H13.5657V34.1465L13.4875 35.1719H12.6575V27.6719ZM17.135 32.4863V32.5889C17.135 32.973 17.0894 33.3294 16.9983 33.6582C16.9071 33.9837 16.7737 34.2669 16.5979 34.5078C16.4221 34.7487 16.2073 34.9359 15.9534 35.0693C15.6995 35.2028 15.4081 35.2695 15.0793 35.2695C14.7441 35.2695 14.4495 35.2126 14.1956 35.0986C13.9449 34.9814 13.7333 34.8138 13.5608 34.5957C13.3883 34.3776 13.2499 34.1139 13.1458 33.8047C13.0448 33.4954 12.9749 33.1471 12.9358 32.7598V32.3105C12.9749 31.9199 13.0448 31.57 13.1458 31.2607C13.2499 30.9515 13.3883 30.6878 13.5608 30.4697C13.7333 30.2484 13.9449 30.0807 14.1956 29.9668C14.4462 29.8496 14.7375 29.791 15.0696 29.791C15.4016 29.791 15.6962 29.8561 15.9534 29.9863C16.2105 30.1133 16.4254 30.2956 16.5979 30.5332C16.7737 30.7708 16.9071 31.0557 16.9983 31.3877C17.0894 31.7165 17.135 32.0827 17.135 32.4863ZM16.2268 32.5889V32.4863C16.2268 32.2227 16.2024 31.9753 16.1536 31.7441C16.1047 31.5098 16.0266 31.3047 15.9192 31.1289C15.8118 30.9499 15.6702 30.8099 15.4944 30.709C15.3186 30.6048 15.1021 30.5527 14.845 30.5527C14.6171 30.5527 14.4185 30.5918 14.2493 30.6699C14.0833 30.748 13.9417 30.8538 13.8245 30.9873C13.7073 31.1175 13.6112 31.2673 13.5364 31.4365C13.4648 31.6025 13.4111 31.7751 13.3752 31.9541V33.1309C13.4273 33.3587 13.512 33.5785 13.6292 33.79C13.7496 33.9984 13.9091 34.1693 14.1077 34.3027C14.3095 34.4362 14.5585 34.5029 14.8547 34.5029C15.0989 34.5029 15.3072 34.4541 15.4797 34.3564C15.6555 34.2555 15.7971 34.1172 15.9045 33.9414C16.0152 33.7656 16.0966 33.5622 16.1487 33.3311C16.2008 33.0999 16.2268 32.8525 16.2268 32.5889ZM21.3538 33.7705C21.3538 33.6403 21.3245 33.5199 21.2659 33.4092C21.2105 33.2952 21.095 33.1927 20.9192 33.1016C20.7467 33.0072 20.4862 32.9258 20.1379 32.8574C19.845 32.7956 19.5797 32.7223 19.342 32.6377C19.1077 32.5531 18.9075 32.4505 18.7415 32.3301C18.5787 32.2096 18.4534 32.068 18.3655 31.9053C18.2776 31.7425 18.2336 31.5521 18.2336 31.334C18.2336 31.1257 18.2792 30.9287 18.3704 30.7432C18.4648 30.5576 18.5966 30.3932 18.7659 30.25C18.9384 30.1068 19.1451 29.9945 19.386 29.9131C19.6269 29.8317 19.8954 29.791 20.1917 29.791C20.6148 29.791 20.9762 29.8659 21.2756 30.0156C21.5751 30.1654 21.8046 30.3656 21.9641 30.6162C22.1236 30.8636 22.2034 31.1387 22.2034 31.4414H21.3C21.3 31.2949 21.2561 31.1533 21.1682 31.0166C21.0836 30.8766 20.9583 30.7611 20.7922 30.6699C20.6295 30.5788 20.4293 30.5332 20.1917 30.5332C19.941 30.5332 19.7375 30.5723 19.5813 30.6504C19.4283 30.7253 19.316 30.8213 19.2444 30.9385C19.176 31.0557 19.1418 31.1794 19.1418 31.3096C19.1418 31.4072 19.1581 31.4951 19.1907 31.5732C19.2265 31.6481 19.2883 31.7181 19.3762 31.7832C19.4641 31.8451 19.5878 31.9036 19.7473 31.959C19.9068 32.0143 20.1103 32.0697 20.3577 32.125C20.7906 32.2227 21.1471 32.3398 21.427 32.4766C21.7069 32.6133 21.9153 32.7809 22.052 32.9795C22.1887 33.1781 22.2571 33.4189 22.2571 33.7021C22.2571 33.9333 22.2083 34.1449 22.1106 34.3369C22.0162 34.529 21.8778 34.695 21.6956 34.835C21.5165 34.9717 21.3017 35.0791 21.051 35.1572C20.8036 35.2321 20.5253 35.2695 20.2161 35.2695C19.7506 35.2695 19.3567 35.1865 19.0344 35.0205C18.7122 34.8545 18.468 34.6396 18.302 34.376C18.136 34.1123 18.053 33.834 18.053 33.541H18.9612C18.9742 33.7884 19.0458 33.9854 19.176 34.1318C19.3062 34.2751 19.4657 34.3776 19.6545 34.4395C19.8433 34.498 20.0305 34.5273 20.2161 34.5273C20.4635 34.5273 20.6702 34.4948 20.8362 34.4297C21.0055 34.3646 21.134 34.2751 21.2219 34.1611C21.3098 34.0472 21.3538 33.917 21.3538 33.7705Z" fill="#666666"/>
</svg>
