<svg width="80" height="21" viewBox="0 0 80 21" fill="none" xmlns="http://www.w3.org/2000/svg">
<path fill-rule="evenodd" clip-rule="evenodd" d="M18 5H2V13L6 9L11.5 15L14 13L18 17V5ZM2 3C0.895431 3 0 3.89543 0 5V17C0 18.1046 0.895431 19 2 19H18C19.1046 19 20 18.1046 20 17V5C20 3.89543 19.1046 3 18 3H2Z" fill="#378FE9"/>
<circle cx="14" cy="9" r="2" fill="#378FE9"/>
<path d="M35.8398 5.92871L32.5449 15H31.1982L34.9922 5.04688H35.8604L35.8398 5.92871ZM38.6016 15L35.2998 5.92871L35.2793 5.04688H36.1475L39.9551 15H38.6016ZM38.4307 11.3154V12.3955H32.8389V11.3154H38.4307ZM45.834 9.02539V17.8438H44.5625V7.60352H45.7246L45.834 9.02539ZM50.8174 11.2402V11.3838C50.8174 11.9215 50.7536 12.4206 50.626 12.8809C50.4984 13.3366 50.3115 13.7331 50.0654 14.0703C49.8239 14.4076 49.5254 14.6696 49.1699 14.8564C48.8145 15.0433 48.4066 15.1367 47.9463 15.1367C47.4769 15.1367 47.0622 15.0592 46.7021 14.9043C46.3421 14.7493 46.0368 14.5238 45.7861 14.2275C45.5355 13.9313 45.335 13.5758 45.1846 13.1611C45.0387 12.7464 44.9385 12.2793 44.8838 11.7598V10.9941C44.9385 10.4473 45.041 9.95736 45.1914 9.52441C45.3418 9.09147 45.54 8.72233 45.7861 8.41699C46.0368 8.1071 46.3398 7.8724 46.6953 7.71289C47.0508 7.54883 47.4609 7.4668 47.9258 7.4668C48.3906 7.4668 48.8031 7.55794 49.1631 7.74023C49.5231 7.91797 49.8262 8.17318 50.0723 8.50586C50.3184 8.83854 50.5029 9.2373 50.626 9.70215C50.7536 10.1624 50.8174 10.6751 50.8174 11.2402ZM49.5459 11.3838V11.2402C49.5459 10.8711 49.5072 10.5247 49.4297 10.2012C49.3522 9.87305 49.2314 9.58594 49.0674 9.33984C48.9079 9.08919 48.7028 8.89323 48.4521 8.75195C48.2015 8.60612 47.903 8.5332 47.5566 8.5332C47.2376 8.5332 46.9596 8.58789 46.7227 8.69727C46.4902 8.80664 46.292 8.95475 46.1279 9.1416C45.9639 9.32389 45.8294 9.53353 45.7246 9.77051C45.6243 10.0029 45.5492 10.2445 45.499 10.4951V12.2656C45.5902 12.5846 45.7178 12.8854 45.8818 13.168C46.0459 13.446 46.2646 13.6715 46.5381 13.8447C46.8115 14.0133 47.1556 14.0977 47.5703 14.0977C47.9121 14.0977 48.2061 14.027 48.4521 13.8857C48.7028 13.7399 48.9079 13.5417 49.0674 13.291C49.2314 13.0404 49.3522 12.7533 49.4297 12.4297C49.5072 12.1016 49.5459 11.7529 49.5459 11.3838ZM53.6953 4.5V15H52.4307V4.5H53.6953ZM53.3945 11.0215L52.8682 11.001C52.8727 10.4951 52.9479 10.028 53.0938 9.59961C53.2396 9.16667 53.4447 8.79069 53.709 8.47168C53.9733 8.15267 54.2878 7.90658 54.6523 7.7334C55.0215 7.55566 55.4294 7.4668 55.876 7.4668C56.2406 7.4668 56.5687 7.51693 56.8604 7.61719C57.152 7.71289 57.4004 7.86784 57.6055 8.08203C57.8151 8.29622 57.9746 8.57422 58.084 8.91602C58.1934 9.25326 58.248 9.66569 58.248 10.1533V15H56.9766V10.1396C56.9766 9.75228 56.9196 9.44238 56.8057 9.20996C56.6917 8.97298 56.5254 8.80208 56.3066 8.69727C56.0879 8.58789 55.819 8.5332 55.5 8.5332C55.1855 8.5332 54.8984 8.59928 54.6387 8.73145C54.3835 8.86361 54.1624 9.0459 53.9756 9.27832C53.7933 9.51074 53.6497 9.77734 53.5449 10.0781C53.4447 10.3743 53.3945 10.6888 53.3945 11.0215ZM59.8066 11.3838V11.2266C59.8066 10.6934 59.8841 10.1989 60.0391 9.74316C60.194 9.28288 60.4173 8.88411 60.709 8.54688C61.0007 8.20508 61.3538 7.94076 61.7686 7.75391C62.1833 7.5625 62.6481 7.4668 63.1631 7.4668C63.6826 7.4668 64.1497 7.5625 64.5645 7.75391C64.9837 7.94076 65.3392 8.20508 65.6309 8.54688C65.9271 8.88411 66.1527 9.28288 66.3076 9.74316C66.4626 10.1989 66.54 10.6934 66.54 11.2266V11.3838C66.54 11.917 66.4626 12.4115 66.3076 12.8672C66.1527 13.3229 65.9271 13.7217 65.6309 14.0635C65.3392 14.4007 64.986 14.665 64.5713 14.8564C64.1611 15.0433 63.6963 15.1367 63.1768 15.1367C62.6572 15.1367 62.1901 15.0433 61.7754 14.8564C61.3607 14.665 61.0052 14.4007 60.709 14.0635C60.4173 13.7217 60.194 13.3229 60.0391 12.8672C59.8841 12.4115 59.8066 11.917 59.8066 11.3838ZM61.0713 11.2266V11.3838C61.0713 11.7529 61.1146 12.1016 61.2012 12.4297C61.2878 12.7533 61.4176 13.0404 61.5908 13.291C61.7686 13.5417 61.9896 13.7399 62.2539 13.8857C62.5182 14.027 62.8258 14.0977 63.1768 14.0977C63.5231 14.0977 63.8262 14.027 64.0859 13.8857C64.3503 13.7399 64.569 13.5417 64.7422 13.291C64.9154 13.0404 65.0452 12.7533 65.1318 12.4297C65.223 12.1016 65.2686 11.7529 65.2686 11.3838V11.2266C65.2686 10.862 65.223 10.5179 65.1318 10.1943C65.0452 9.86621 64.9131 9.57682 64.7354 9.32617C64.5622 9.07096 64.3434 8.87044 64.0791 8.72461C63.8193 8.57878 63.514 8.50586 63.1631 8.50586C62.8167 8.50586 62.5114 8.57878 62.2471 8.72461C61.9873 8.87044 61.7686 9.07096 61.5908 9.32617C61.4176 9.57682 61.2878 9.86621 61.2012 10.1943C61.1146 10.5179 61.0713 10.862 61.0713 11.2266ZM71.2227 7.60352V8.57422H67.2236V7.60352H71.2227ZM68.5771 5.80566H69.8418V13.168C69.8418 13.4186 69.8805 13.6077 69.958 13.7354C70.0355 13.863 70.1357 13.9473 70.2588 13.9883C70.3818 14.0293 70.514 14.0498 70.6553 14.0498C70.7601 14.0498 70.8695 14.0407 70.9834 14.0225C71.1019 13.9997 71.1908 13.9814 71.25 13.9678L71.2568 15C71.1566 15.0319 71.0244 15.0615 70.8604 15.0889C70.7008 15.1208 70.5072 15.1367 70.2793 15.1367C69.9694 15.1367 69.6846 15.0752 69.4248 14.9521C69.165 14.8291 68.9577 14.624 68.8027 14.3369C68.6523 14.0452 68.5771 13.6533 68.5771 13.1611V5.80566ZM72.2344 11.3838V11.2266C72.2344 10.6934 72.3118 10.1989 72.4668 9.74316C72.6217 9.28288 72.8451 8.88411 73.1367 8.54688C73.4284 8.20508 73.7816 7.94076 74.1963 7.75391C74.611 7.5625 75.0758 7.4668 75.5908 7.4668C76.1104 7.4668 76.5775 7.5625 76.9922 7.75391C77.4115 7.94076 77.7669 8.20508 78.0586 8.54688C78.3548 8.88411 78.5804 9.28288 78.7354 9.74316C78.8903 10.1989 78.9678 10.6934 78.9678 11.2266V11.3838C78.9678 11.917 78.8903 12.4115 78.7354 12.8672C78.5804 13.3229 78.3548 13.7217 78.0586 14.0635C77.7669 14.4007 77.4137 14.665 76.999 14.8564C76.5889 15.0433 76.124 15.1367 75.6045 15.1367C75.085 15.1367 74.6178 15.0433 74.2031 14.8564C73.7884 14.665 73.4329 14.4007 73.1367 14.0635C72.8451 13.7217 72.6217 13.3229 72.4668 12.8672C72.3118 12.4115 72.2344 11.917 72.2344 11.3838ZM73.499 11.2266V11.3838C73.499 11.7529 73.5423 12.1016 73.6289 12.4297C73.7155 12.7533 73.8454 13.0404 74.0186 13.291C74.1963 13.5417 74.4173 13.7399 74.6816 13.8857C74.946 14.027 75.2536 14.0977 75.6045 14.0977C75.9508 14.0977 76.2539 14.027 76.5137 13.8857C76.778 13.7399 76.9967 13.5417 77.1699 13.291C77.3431 13.0404 77.473 12.7533 77.5596 12.4297C77.6507 12.1016 77.6963 11.7529 77.6963 11.3838V11.2266C77.6963 10.862 77.6507 10.5179 77.5596 10.1943C77.473 9.86621 77.3408 9.57682 77.1631 9.32617C76.9899 9.07096 76.7712 8.87044 76.5068 8.72461C76.2471 8.57878 75.9417 8.50586 75.5908 8.50586C75.2445 8.50586 74.9391 8.57878 74.6748 8.72461C74.415 8.87044 74.1963 9.07096 74.0186 9.32617C73.8454 9.57682 73.7155 9.86621 73.6289 10.1943C73.5423 10.5179 73.499 10.862 73.499 11.2266Z" fill="#666666"/>
</svg>
